<svg xmlns="http://www.w3.org/2000/svg" width="42.951" height="42.952" viewBox="0 0 42.951 42.952">
  <path id="Caminho_1073" data-name="Caminho 1073" d="M635.57,61.656a21.476,21.476,0,1,0,21.476,21.475A21.475,21.475,0,0,0,635.57,61.656ZM628.708,95.4h-5.014V79.105h5.014Zm-2.417-18.663a2.932,2.932,0,1,1,2.932-2.932A2.932,2.932,0,0,1,626.291,76.733Zm21.49,6.8V95.4h-4.835V87.251c0-2.063-.179-4.3-3.224-4.116s-2.6,3.671-2.6,3.671V95.4h-5.193V79.105h5.1V81.3a5.538,5.538,0,0,1,5.462-2.731C647.977,79.142,647.781,83.529,647.781,83.529Z" transform="translate(-614.094 -61.656)" fill="#4b4b4b"/>
</svg>
