<svg xmlns="http://www.w3.org/2000/svg" width="51.612" height="51.612" viewBox="0 0 51.612 51.612"><path d="M666.435,257.553c0-2.392-1.626-2.392-1.626-2.392h-6.693v5.131h6.278C665.479,260.292,666.435,259.945,666.435,257.553Z" transform="translate(-645.404 -236.723)" fill="#fff"/><path d="M664.809,276.9h-6.693v6.146H664.5c.959-.028,2.732-.328,2.732-2.988C667.233,276.868,664.809,276.9,664.809,276.9Z" transform="translate(-645.404 -249.787)" fill="#fff"/><path d="M711.735,268.019a4.112,4.112,0,0,0-4.047,3.544h7.553S715.286,268.019,711.735,268.019Z" transform="translate(-675.194 -244.45)" fill="#fff"/><path d="M652.069,208.957a25.806,25.806,0,1,0,25.806,25.806A25.806,25.806,0,0,0,652.069,208.957Zm5.7,15.705h9.486V227.5h-9.486Zm-4.8,14.853c0,7.017-7.3,6.787-7.3,6.787H633.7V223.308h11.965c3.636,0,6.506,2.008,6.506,6.122s-3.508,4.375-3.508,4.375C653.29,233.806,652.971,239.515,652.971,239.515Zm9.877,3.625c3.821,0,3.687-2.473,3.687-2.473h4.047c0,6.564-7.868,6.115-7.868,6.115-9.442,0-8.836-8.79-8.836-8.79s-.007-8.835,8.836-8.835c9.306,0,8,9.981,8,9.981H658.8A3.74,3.74,0,0,0,662.848,243.141Z" transform="translate(-626.262 -208.957)" fill="#fff"/></svg>