<svg xmlns="http://www.w3.org/2000/svg" width="51.612" height="51.612" viewBox="0 0 51.612 51.612"><path d="M639.9,61.656a25.806,25.806,0,1,0,25.806,25.806A25.806,25.806,0,0,0,639.9,61.656ZM631.655,102.2h-6.025V82.624h6.025Zm-2.9-22.426a3.524,3.524,0,1,1,3.524-3.523A3.524,3.524,0,0,1,628.75,79.773Zm25.823,8.167V102.2h-5.81V92.412c0-2.479-.215-5.161-3.874-4.946s-3.12,4.411-3.12,4.411V102.2h-6.241V82.624h6.133V85.26a6.655,6.655,0,0,1,6.564-3.281C654.809,82.667,654.574,87.94,654.574,87.94Z" transform="translate(-614.094 -61.656)" fill="#fff"/></svg>